#!OML:ASF F:\VICON\USERDATA\INSTALL\rory3\rory3.ASF
:FULLY-SPECIFIED
:DEGREES
1499
root -0.697369 17.7152 4.27237 17.3196 2.94465 -8.55023
lowerback -4.54244 -1.50175 2.66332
upperback -5.56863 -2.02273 1.93272
thorax -3.21927 -1.07115 0.468917
lowerneck -11.7112 -4.73593 -6.47402
upperneck 34.1627 -7.94703 7.28419
head 14.2055 -3.38543 2.84095
rclavicle 1.11319e-014 -4.92986e-014
rhumerus -47.5274 12.149 -71.6079
rradius 77.4822
rwrist 2.2713
rhand -21.4761 -40.2473
rfingers 7.12502
rthumb 4.91469 -790.17
lclavicle 1.11319e-014 -4.92986e-014
lhumerus -53.241 -15.8366 85.1601
lradius 65.9942
lwrist 2.51097
lhand -32.4872 -40.0197
lfingers 7.12502
lthumb -5.71916 -10.1169
rfemur -28.7885 -0.0177942 27.4901
rtibia 35.6966
rfoot -3.99963 -8.93874
rtoes -30.1767
lfemur -54.4785 10.5197 -14.9081
ltibia 120.111
lfoot -9.03769 0.891608
ltoes -2.45723
1500
root -0.800006 17.5525 4.27229 17.7142 2.96554 -8.29876
lowerback -4.53372 -1.55647 1.79597
upperback -5.83687 -2.07355 1.84221
thorax -3.47403 -1.06881 0.865172
lowerneck -11.8097 -4.73072 -6.67688
upperneck 34.045 -8.03143 7.73895
head 14.2185 -3.38909 3.04552
rclavicle 1.54555e-014 1.19271e-014
rhumerus -47.3035 12.0516 -71.659
rradius 77.5698
rwrist 2.16197
rhand -21.0241 -40.7322
rfingers 7.12502
rthumb 5.35108 -790.645
lclavicle 1.54555e-014 1.19271e-014
lhumerus -53.4321 -15.4883 84.9334
lradius 65.6477
lwrist 2.1601
lhand -32.0112 -38.9076
lfingers 7.12502
lthumb -5.25953 -8.9929
rfemur -29.4184 0.345913 27.7505
rtibia 36.5254
rfoot -6.95868 -10.8727
rtoes -29.0122
lfemur -55.9706 11.0832 -15.6285
ltibia 122.838
lfoot -9.16253 -0.296222
ltoes -2.17956
1501
root -0.897226 17.3839 4.26444 18.1631 3.05077 -8.20974
lowerback -4.51795 -1.61875 1.13374
upperback -6.10172 -2.13907 1.83796
thorax -3.73436 -1.07643 1.23655
lowerneck -12.0366 -4.75829 -6.87056
upperneck 33.9621 -8.12665 8.09064
head 14.2725 -3.4053 3.20316
rclavicle 1.33186e-014 -1.90833e-014
rhumerus -46.8817 12.0704 -71.5839
rradius 77.6146
rwrist 2.03701
rhand -21.0211 -41.1304
rfingers 7.12502
rthumb 5.35402 -791.043
lclavicle 1.33186e-014 -1.90833e-014
lhumerus -53.4935 -15.0362 84.8123
lradius 65.1708
lwrist 1.8763
lhand -32.112 -38.8191
lfingers 7.12502
lthumb -5.35683 -8.9068
rfemur -30.4863 0.882697 28.0469
rtibia 37.7144
rfoot -10.0239 -12.4282
rtoes -22.8243
lfemur -57.6794 11.6044 -16.192
ltibia 125.457
lfoot -9.11146 -1.44696
ltoes -3.0107
1502
root -0.977801 17.2057 4.25997 18.5002 3.30515 -8.35832
lowerback -4.71641 -1.64987 0.998811
upperback -6.21944 -2.18004 1.83557
thorax -3.74088 -1.09153 1.30526
lowerneck -12.392 -4.8586 -7.11635
upperneck 33.88 -8.3254 8.49017
head 14.3746 -3.4625 3.37098
rclavicle 9.98893e-015 -2.46493e-014
rhumerus -46.3983 12.0478 -71.4079
rradius 77.6766
rwrist 2.08668
rhand -21.4354 -40.7608
rfingers 7.12502
rthumb 4.9539 -790.683
lclavicle 9.98893e-015 -2.46493e-014
lhumerus -53.5015 -14.6298 84.7256
lradius 64.7509
lwrist 1.68586
lhand -32.3275 -39.9665
lfingers 7.12502
lthumb -5.56497 -10.0596
rfemur -31.5455 1.36533 28.5132
rtibia 39.1131
rfoot -12.4532 -13.6274
rtoes -16.7706
lfemur -59.1904 11.6413 -16.5852
ltibia 127.93
lfoot -9.07565 -2.24237
ltoes -6.09831
1503
root -1.04964 17.0328 4.2471 18.6098 3.45566 -8.61796
lowerback -4.68745 -1.60681 1.05194
upperback -6.22628 -2.1225 1.83491
thorax -3.76713 -1.06471 1.27685
lowerneck -12.8809 -4.99677 -7.40132
upperneck 33.9062 -8.5478 8.82595
head 14.5612 -3.5373 3.51717
rclavicle -5.23301e-014 9.54166e-015
rhumerus -45.9979 11.9369 -71.0777
rradius 78.0054
rwrist 2.45529
rhand -21.6006 -40.1082
rfingers 7.12502
rthumb 4.79442 -790.034
lclavicle -5.23301e-014 9.54166e-015
lhumerus -53.3837 -14.2641 84.6539
lradius 64.2796
lwrist 1.3837
lhand -32.5252 -40.977
lfingers 7.12502
lthumb -5.75584 -11.0752
rfemur -32.5545 1.79422 29.0787
rtibia 40.8055
rfoot -14.3011 -14.8542
rtoes -13.9044
lfemur -60.3616 11.7224 -16.8349
ltibia 130.154
lfoot -9.20102 -2.76689
ltoes -8.90739
1504
root -1.12136 16.8844 4.22258 18.4978 3.4226 -8.97909
lowerback -4.11441 -1.55482 1.10822
upperback -6.25596 -2.03951 1.89919
thorax -4.12103 -1.02343 1.33205
lowerneck -13.3471 -5.05216 -7.59775
upperneck 34.1036 -8.59433 8.90508
head 14.7832 -3.55717 3.57713
rclavicle 1.38652e-014 -7.95139e-016
rhumerus -45.3993 12.0035 -70.646
rradius 78.1649
rwrist 3.11032
rhand -21.2714 -40.2981
rfingers 7.12502
rthumb 5.11233 -790.216
lclavicle 1.38652e-014 -7.95139e-016
lhumerus -53.2457 -13.7453 84.5194
lradius 63.7013
lwrist 0.653206
lhand -32.5915 -41.2757
lfingers 7.12502
lthumb -5.81982 -11.3756
rfemur -33.2535 2.40836 29.7394
rtibia 42.3565
rfoot -16.1474 -16.3152
rtoes -13.2189
lfemur -61.2472 12.3369 -16.785
ltibia 131.978
lfoot -9.34778 -3.43702
ltoes -8.71605
1505
root -1.2101 16.6769 4.19181 18.2563 2.92496 -9.58104
lowerback -3.66182 -1.40064 1.07519
upperback -6.05027 -1.82381 2.01988
thorax -4.15804 -0.910944 1.48449
lowerneck -14.0152 -4.9477 -7.56513
upperneck 34.2011 -8.42293 8.9333
head 14.964 -3.45518 3.60729
rclavicle -6.55989e-015 2.38542e-015
rhumerus -44.2772 12.2103 -70.166
rradius 78.1082
rwrist 3.68157
rhand -20.9929 -41.3057
rfingers 7.12502
rthumb 5.38119 -791.217
lclavicle -6.55989e-015 2.38542e-015
lhumerus -52.8853 -13.0138 84.1005
lradius 63.1727
lwrist -0.38944
lhand -32.4421 -42.0674
lfingers 7.12502
lthumb -5.67561 -12.1634
rfemur -34.0438 3.79766 30.5633
rtibia 44.1691
rfoot -18.3747 -17.8865
rtoes -11.9361
lfemur -61.9173 14.4708 -15.939
ltibia 133.986
lfoot -10.1422 -4.99463
ltoes -8.69564
1506
root -1.24921 16.5474 4.1734 18.2101 2.85168 -10.3107
lowerback -3.26273 -1.32352 2.08515
upperback -5.92428 -1.719 2.00211
thorax -4.28563 -0.901937 0.910771
lowerneck -14.6892 -4.85799 -7.47145
upperneck 34.1655 -8.28181 8.96558
head 15.0845 -3.35895 3.61882
rclavicle -3.42904e-014 7.15625e-015
rhumerus -43.1659 12.542 -69.6075
rradius 78.3577
rwrist 3.97114
rhand -20.5277 -42.5618
rfingers 7.12502
rthumb 5.8304 -792.462
lclavicle -3.42904e-014 7.15625e-015
lhumerus -52.72 -12.1747 83.5876
lradius 62.8827
lwrist -1.56591
lhand -32.3485 -42.8954
lfingers 7.12502
lthumb -5.58518 -12.989
rfemur -34.7466 4.18671 31.5322
rtibia 45.7788
rfoot -20.2564 -18.9631
rtoes -11.4089
lfemur -62.1965 14.9238 -15.3934
ltibia 135.098
lfoot -10.0327 -5.89845
ltoes -6.86473
1507
root -1.30834 16.3561 4.13597 18.061 2.49323 -11.6784
lowerback -2.73814 -1.1751 3.28247
upperback -5.84338 -1.49385 2.26317
thorax -4.52766 -0.835667 0.523552
lowerneck -15.151 -4.7919 -7.43018
upperneck 34.0302 -8.11427 8.85916
head 15.099 -3.28425 3.58425
rclavicle -3.3197e-014 1.11319e-014
rhumerus -42.1654 12.8348 -68.8973
rradius 78.8983
rwrist 4.23023
rhand -20.1161 -43.049
rfingers 7.12502
rthumb 6.22773 -792.937
lclavicle -3.3197e-014 1.11319e-014
lhumerus -52.8826 -11.1029 83.1224
lradius 62.859
lwrist -2.83729
lhand -31.5067 -41.0425
lfingers 7.12502
lthumb -4.77245 -11.1162
rfemur -35.6699 5.36881 33.1456
rtibia 47.7464
rfoot -21.0068 -20.3855
rtoes -12.4393
lfemur -62.7061 17.4599 -13.1369
ltibia 136.631
lfoot -10.8561 -8.07126
ltoes -4.72238
